<svg xmlns="http://www.w3.org/2000/svg" version="1.1" xmlns:xlink="http://www.w3.org/1999/xlink" xmlns:svgjs="http://svgjs.dev/svgjs" width="500" height="600" preserveAspectRatio="none" viewBox="0 0 500 600"><g mask="url(&quot;#SvgjsMask1007&quot;)" fill="none"><rect width="500" height="600" x="0" y="0" fill="rgba(255, 255, 255, 1)"></rect><path d="M46.3 405.12L80.07 424.62L80.07 463.62L46.3 483.12L12.52 463.62L12.52 424.62zM80.07 112.62L113.85 132.12L113.85 171.12L80.07 190.62L46.3 171.12L46.3 132.12zM113.85 288.12L147.62 307.62L147.62 346.62L113.85 366.12L80.07 346.62L80.07 307.62zM80.07 346.62L113.85 366.12L113.85 405.12L80.07 424.62L46.3 405.12L46.3 366.12zM181.4 288.12L215.18 307.62L215.18 346.62L181.4 366.12L147.62 346.62L147.62 307.62zM181.4 405.12L215.18 424.62L215.18 463.62L181.4 483.12L147.62 463.62L147.62 424.62zM147.62 463.62L181.4 483.12L181.4 522.12L147.62 541.62L113.85 522.12L113.85 483.12zM215.18 463.62L248.95 483.12L248.95 522.12L215.18 541.62L181.4 522.12L181.4 483.12zM282.73 -4.38L316.5 15.12L316.5 54.12L282.73 73.62L248.95 54.12L248.95 15.12zM316.5 405.12L350.28 424.62L350.28 463.62L316.5 483.12L282.73 463.62L282.73 424.62zM282.73 463.62L316.5 483.12L316.5 522.12L282.73 541.62L248.95 522.12L248.95 483.12zM316.5 522.12L350.28 541.62L350.28 580.62L316.5 600.12L282.73 580.62L282.73 541.62zM350.28 -4.38L384.06 15.12L384.06 54.12L350.28 73.62L316.5 54.12L316.5 15.12zM384.06 522.12L417.83 541.62L417.83 580.62L384.06 600.12L350.28 580.62L350.28 541.62zM417.83 -4.38L451.61 15.12L451.61 54.12L417.83 73.62L384.06 54.12L384.06 15.12zM451.61 288.12L485.38 307.62L485.38 346.62L451.61 366.12L417.83 346.62L417.83 307.62z" stroke="rgba(0, 0, 0, 1)" stroke-width="2"></path><path d="M42.4 405.12 a3.9 3.9 0 1 0 7.8 0 a3.9 3.9 0 1 0 -7.8 0zM76.17 424.62 a3.9 3.9 0 1 0 7.8 0 a3.9 3.9 0 1 0 -7.8 0zM76.17 463.62 a3.9 3.9 0 1 0 7.8 0 a3.9 3.9 0 1 0 -7.8 0zM42.4 483.12 a3.9 3.9 0 1 0 7.8 0 a3.9 3.9 0 1 0 -7.8 0zM8.62 463.62 a3.9 3.9 0 1 0 7.8 0 a3.9 3.9 0 1 0 -7.8 0zM8.62 424.62 a3.9 3.9 0 1 0 7.8 0 a3.9 3.9 0 1 0 -7.8 0zM76.17 112.62 a3.9 3.9 0 1 0 7.8 0 a3.9 3.9 0 1 0 -7.8 0zM109.95 132.12 a3.9 3.9 0 1 0 7.8 0 a3.9 3.9 0 1 0 -7.8 0zM109.95 171.12 a3.9 3.9 0 1 0 7.8 0 a3.9 3.9 0 1 0 -7.8 0zM76.17 190.62 a3.9 3.9 0 1 0 7.8 0 a3.9 3.9 0 1 0 -7.8 0zM42.4 171.12 a3.9 3.9 0 1 0 7.8 0 a3.9 3.9 0 1 0 -7.8 0zM42.4 132.12 a3.9 3.9 0 1 0 7.8 0 a3.9 3.9 0 1 0 -7.8 0zM109.95 288.12 a3.9 3.9 0 1 0 7.8 0 a3.9 3.9 0 1 0 -7.8 0zM143.72 307.62 a3.9 3.9 0 1 0 7.8 0 a3.9 3.9 0 1 0 -7.8 0zM143.72 346.62 a3.9 3.9 0 1 0 7.8 0 a3.9 3.9 0 1 0 -7.8 0zM109.95 366.12 a3.9 3.9 0 1 0 7.8 0 a3.9 3.9 0 1 0 -7.8 0zM76.17 346.62 a3.9 3.9 0 1 0 7.8 0 a3.9 3.9 0 1 0 -7.8 0zM76.17 307.62 a3.9 3.9 0 1 0 7.8 0 a3.9 3.9 0 1 0 -7.8 0zM109.95 405.12 a3.9 3.9 0 1 0 7.8 0 a3.9 3.9 0 1 0 -7.8 0zM42.4 366.12 a3.9 3.9 0 1 0 7.8 0 a3.9 3.9 0 1 0 -7.8 0zM177.5 288.12 a3.9 3.9 0 1 0 7.8 0 a3.9 3.9 0 1 0 -7.8 0zM211.28 307.62 a3.9 3.9 0 1 0 7.8 0 a3.9 3.9 0 1 0 -7.8 0zM211.28 346.62 a3.9 3.9 0 1 0 7.8 0 a3.9 3.9 0 1 0 -7.8 0zM177.5 366.12 a3.9 3.9 0 1 0 7.8 0 a3.9 3.9 0 1 0 -7.8 0zM177.5 405.12 a3.9 3.9 0 1 0 7.8 0 a3.9 3.9 0 1 0 -7.8 0zM211.28 424.62 a3.9 3.9 0 1 0 7.8 0 a3.9 3.9 0 1 0 -7.8 0zM211.28 463.62 a3.9 3.9 0 1 0 7.8 0 a3.9 3.9 0 1 0 -7.8 0zM177.5 483.12 a3.9 3.9 0 1 0 7.8 0 a3.9 3.9 0 1 0 -7.8 0zM143.72 463.62 a3.9 3.9 0 1 0 7.8 0 a3.9 3.9 0 1 0 -7.8 0zM143.72 424.62 a3.9 3.9 0 1 0 7.8 0 a3.9 3.9 0 1 0 -7.8 0zM177.5 522.12 a3.9 3.9 0 1 0 7.8 0 a3.9 3.9 0 1 0 -7.8 0zM143.72 541.62 a3.9 3.9 0 1 0 7.8 0 a3.9 3.9 0 1 0 -7.8 0zM109.95 522.12 a3.9 3.9 0 1 0 7.8 0 a3.9 3.9 0 1 0 -7.8 0zM109.95 483.12 a3.9 3.9 0 1 0 7.8 0 a3.9 3.9 0 1 0 -7.8 0zM245.05 483.12 a3.9 3.9 0 1 0 7.8 0 a3.9 3.9 0 1 0 -7.8 0zM245.05 522.12 a3.9 3.9 0 1 0 7.8 0 a3.9 3.9 0 1 0 -7.8 0zM211.28 541.62 a3.9 3.9 0 1 0 7.8 0 a3.9 3.9 0 1 0 -7.8 0zM278.83 -4.38 a3.9 3.9 0 1 0 7.8 0 a3.9 3.9 0 1 0 -7.8 0zM312.6 15.12 a3.9 3.9 0 1 0 7.8 0 a3.9 3.9 0 1 0 -7.8 0zM312.6 54.12 a3.9 3.9 0 1 0 7.8 0 a3.9 3.9 0 1 0 -7.8 0zM278.83 73.62 a3.9 3.9 0 1 0 7.8 0 a3.9 3.9 0 1 0 -7.8 0zM245.05 54.12 a3.9 3.9 0 1 0 7.8 0 a3.9 3.9 0 1 0 -7.8 0zM245.05 15.12 a3.9 3.9 0 1 0 7.8 0 a3.9 3.9 0 1 0 -7.8 0zM312.6 405.12 a3.9 3.9 0 1 0 7.8 0 a3.9 3.9 0 1 0 -7.8 0zM346.38 424.62 a3.9 3.9 0 1 0 7.8 0 a3.9 3.9 0 1 0 -7.8 0zM346.38 463.62 a3.9 3.9 0 1 0 7.8 0 a3.9 3.9 0 1 0 -7.8 0zM312.6 483.12 a3.9 3.9 0 1 0 7.8 0 a3.9 3.9 0 1 0 -7.8 0zM278.83 463.62 a3.9 3.9 0 1 0 7.8 0 a3.9 3.9 0 1 0 -7.8 0zM278.83 424.62 a3.9 3.9 0 1 0 7.8 0 a3.9 3.9 0 1 0 -7.8 0zM312.6 522.12 a3.9 3.9 0 1 0 7.8 0 a3.9 3.9 0 1 0 -7.8 0zM278.83 541.62 a3.9 3.9 0 1 0 7.8 0 a3.9 3.9 0 1 0 -7.8 0zM346.38 541.62 a3.9 3.9 0 1 0 7.8 0 a3.9 3.9 0 1 0 -7.8 0zM346.38 580.62 a3.9 3.9 0 1 0 7.8 0 a3.9 3.9 0 1 0 -7.8 0zM312.6 600.12 a3.9 3.9 0 1 0 7.8 0 a3.9 3.9 0 1 0 -7.8 0zM278.83 580.62 a3.9 3.9 0 1 0 7.8 0 a3.9 3.9 0 1 0 -7.8 0zM346.38 -4.38 a3.9 3.9 0 1 0 7.8 0 a3.9 3.9 0 1 0 -7.8 0zM380.16 15.12 a3.9 3.9 0 1 0 7.8 0 a3.9 3.9 0 1 0 -7.8 0zM380.16 54.12 a3.9 3.9 0 1 0 7.8 0 a3.9 3.9 0 1 0 -7.8 0zM346.38 73.62 a3.9 3.9 0 1 0 7.8 0 a3.9 3.9 0 1 0 -7.8 0zM380.16 522.12 a3.9 3.9 0 1 0 7.8 0 a3.9 3.9 0 1 0 -7.8 0zM413.93 541.62 a3.9 3.9 0 1 0 7.8 0 a3.9 3.9 0 1 0 -7.8 0zM413.93 580.62 a3.9 3.9 0 1 0 7.8 0 a3.9 3.9 0 1 0 -7.8 0zM380.16 600.12 a3.9 3.9 0 1 0 7.8 0 a3.9 3.9 0 1 0 -7.8 0zM413.93 -4.38 a3.9 3.9 0 1 0 7.8 0 a3.9 3.9 0 1 0 -7.8 0zM447.71 15.12 a3.9 3.9 0 1 0 7.8 0 a3.9 3.9 0 1 0 -7.8 0zM447.71 54.12 a3.9 3.9 0 1 0 7.8 0 a3.9 3.9 0 1 0 -7.8 0zM413.93 73.62 a3.9 3.9 0 1 0 7.8 0 a3.9 3.9 0 1 0 -7.8 0zM447.71 288.12 a3.9 3.9 0 1 0 7.8 0 a3.9 3.9 0 1 0 -7.8 0zM481.48 307.62 a3.9 3.9 0 1 0 7.8 0 a3.9 3.9 0 1 0 -7.8 0zM481.48 346.62 a3.9 3.9 0 1 0 7.8 0 a3.9 3.9 0 1 0 -7.8 0zM447.71 366.12 a3.9 3.9 0 1 0 7.8 0 a3.9 3.9 0 1 0 -7.8 0zM413.93 346.62 a3.9 3.9 0 1 0 7.8 0 a3.9 3.9 0 1 0 -7.8 0zM413.93 307.62 a3.9 3.9 0 1 0 7.8 0 a3.9 3.9 0 1 0 -7.8 0z" fill="rgba(0, 0, 0, 1)"></path><path d="M122.51 72.63L187.47 110.13L187.47 185.13L122.51 222.63L57.56 185.13L57.56 110.13zM57.56 185.13L122.51 222.63L122.51 297.63L57.56 335.13L-7.39 297.63L-7.39 222.63zM122.51 297.63L187.47 335.13L187.47 410.13L122.51 447.63L57.56 410.13L57.56 335.13zM57.56 410.13L122.51 447.63L122.51 522.63L57.56 560.13L-7.39 522.63L-7.39 447.63zM187.47 -39.87L252.42 -2.37L252.42 72.63L187.47 110.13L122.51 72.63L122.51 -2.37zM252.42 297.63L317.38 335.13L317.38 410.13L252.42 447.63L187.47 410.13L187.47 335.13zM187.47 410.13L252.42 447.63L252.42 522.63L187.47 560.13L122.51 522.63L122.51 447.63zM382.33 297.63L447.28 335.13L447.28 410.13L382.33 447.63L317.38 410.13L317.38 335.13zM447.28 -39.87L512.24 -2.37L512.24 72.63L447.28 110.13L382.33 72.63L382.33 -2.37zM447.28 185.13L512.24 222.63L512.24 297.63L447.28 335.13L382.33 297.63L382.33 222.63z" stroke="rgba(92, 85, 99, 1)" stroke-width="2"></path><path d="M115.01 72.63 a7.5 7.5 0 1 0 15 0 a7.5 7.5 0 1 0 -15 0zM179.97 110.13 a7.5 7.5 0 1 0 15 0 a7.5 7.5 0 1 0 -15 0zM179.97 185.13 a7.5 7.5 0 1 0 15 0 a7.5 7.5 0 1 0 -15 0zM115.01 222.63 a7.5 7.5 0 1 0 15 0 a7.5 7.5 0 1 0 -15 0zM50.06 185.13 a7.5 7.5 0 1 0 15 0 a7.5 7.5 0 1 0 -15 0zM50.06 110.13 a7.5 7.5 0 1 0 15 0 a7.5 7.5 0 1 0 -15 0zM115.01 297.63 a7.5 7.5 0 1 0 15 0 a7.5 7.5 0 1 0 -15 0zM50.06 335.13 a7.5 7.5 0 1 0 15 0 a7.5 7.5 0 1 0 -15 0zM-14.89 297.63 a7.5 7.5 0 1 0 15 0 a7.5 7.5 0 1 0 -15 0zM-14.89 222.63 a7.5 7.5 0 1 0 15 0 a7.5 7.5 0 1 0 -15 0zM179.97 335.13 a7.5 7.5 0 1 0 15 0 a7.5 7.5 0 1 0 -15 0zM179.97 410.13 a7.5 7.5 0 1 0 15 0 a7.5 7.5 0 1 0 -15 0zM115.01 447.63 a7.5 7.5 0 1 0 15 0 a7.5 7.5 0 1 0 -15 0zM50.06 410.13 a7.5 7.5 0 1 0 15 0 a7.5 7.5 0 1 0 -15 0zM115.01 522.63 a7.5 7.5 0 1 0 15 0 a7.5 7.5 0 1 0 -15 0zM50.06 560.13 a7.5 7.5 0 1 0 15 0 a7.5 7.5 0 1 0 -15 0zM-14.89 522.63 a7.5 7.5 0 1 0 15 0 a7.5 7.5 0 1 0 -15 0zM-14.89 447.63 a7.5 7.5 0 1 0 15 0 a7.5 7.5 0 1 0 -15 0zM179.97 -39.87 a7.5 7.5 0 1 0 15 0 a7.5 7.5 0 1 0 -15 0zM244.92 -2.37 a7.5 7.5 0 1 0 15 0 a7.5 7.5 0 1 0 -15 0zM244.92 72.63 a7.5 7.5 0 1 0 15 0 a7.5 7.5 0 1 0 -15 0zM115.01 -2.37 a7.5 7.5 0 1 0 15 0 a7.5 7.5 0 1 0 -15 0zM244.92 297.63 a7.5 7.5 0 1 0 15 0 a7.5 7.5 0 1 0 -15 0zM309.88 335.13 a7.5 7.5 0 1 0 15 0 a7.5 7.5 0 1 0 -15 0zM309.88 410.13 a7.5 7.5 0 1 0 15 0 a7.5 7.5 0 1 0 -15 0zM244.92 447.63 a7.5 7.5 0 1 0 15 0 a7.5 7.5 0 1 0 -15 0zM244.92 522.63 a7.5 7.5 0 1 0 15 0 a7.5 7.5 0 1 0 -15 0zM179.97 560.13 a7.5 7.5 0 1 0 15 0 a7.5 7.5 0 1 0 -15 0zM374.83 297.63 a7.5 7.5 0 1 0 15 0 a7.5 7.5 0 1 0 -15 0zM439.78 335.13 a7.5 7.5 0 1 0 15 0 a7.5 7.5 0 1 0 -15 0zM439.78 410.13 a7.5 7.5 0 1 0 15 0 a7.5 7.5 0 1 0 -15 0zM374.83 447.63 a7.5 7.5 0 1 0 15 0 a7.5 7.5 0 1 0 -15 0zM439.78 -39.87 a7.5 7.5 0 1 0 15 0 a7.5 7.5 0 1 0 -15 0zM504.74 -2.37 a7.5 7.5 0 1 0 15 0 a7.5 7.5 0 1 0 -15 0zM504.74 72.63 a7.5 7.5 0 1 0 15 0 a7.5 7.5 0 1 0 -15 0zM439.78 110.13 a7.5 7.5 0 1 0 15 0 a7.5 7.5 0 1 0 -15 0zM374.83 72.63 a7.5 7.5 0 1 0 15 0 a7.5 7.5 0 1 0 -15 0zM374.83 -2.37 a7.5 7.5 0 1 0 15 0 a7.5 7.5 0 1 0 -15 0zM439.78 185.13 a7.5 7.5 0 1 0 15 0 a7.5 7.5 0 1 0 -15 0zM504.74 222.63 a7.5 7.5 0 1 0 15 0 a7.5 7.5 0 1 0 -15 0zM504.74 297.63 a7.5 7.5 0 1 0 15 0 a7.5 7.5 0 1 0 -15 0zM374.83 222.63 a7.5 7.5 0 1 0 15 0 a7.5 7.5 0 1 0 -15 0z" fill="rgba(92, 85, 99, 1)"></path><path d="M1.33 101.46L44.63 126.46L44.63 176.46L1.33 201.46L-41.97 176.46L-41.97 126.46zM1.33 401.46L44.63 426.46L44.63 476.46L1.33 501.46L-41.97 476.46L-41.97 426.46zM174.54 101.46L217.84 126.46L217.84 176.46L174.54 201.46L131.24 176.46L131.24 126.46zM304.45 26.46L347.75 51.46L347.75 101.46L304.45 126.46L261.14 101.46L261.14 51.46z" stroke="rgba(160, 148, 173, 1)" stroke-width="2"></path></g><defs><mask id="SvgjsMask1007"><rect width="500" height="600" fill="#ffffff"></rect></mask></defs></svg>